{"title":"Alien Expedition 2018 720p WEB-DL x264 [MW]","magnet":"magnet:?xt=urn:btih:3678a10e96b8bb478c60583c9ee07ffd759bd1d6&dn=Alien+Expedition+2018+720p+WEB-DL+x264+%5BMW%5D&tr=udp%3A%2F%2Ftracker.leechers-paradise.org%3A6969&tr=udp%3A%2F%2Fzer0day.ch%3A1337&tr=udp%3A%2F%2Fopen.demonii.com%3A1337&tr=udp%3A%2F%2Ftracker.coppersurfer.tk%3A6969&tr=udp%3A%2F%2Fexodus.desync.com%3A6969","uploader":"MFreaky","categoryP":"video","categoryS":"hd___movies","size":"809435022","seeders":"34","leechers":"34","description":" <a href=\"https://pichub.site/image/EXt56\" rel=\"nofollow\" target=\"_NEW\">https://pichub.site/image/EXt56</a> <a href=\"\nhttps://pichub.site/image/EXzqt\" rel=\"nofollow\" target=\"_NEW\">\nhttps://pichub.site/image/EXzqt</a> <a href=\"\nhttps://pichub.site/image/EXAy4\" rel=\"nofollow\" target=\"_NEW\">\nhttps://pichub.site/image/EXAy4</a> <a href=\"\nhttps://pichub.site/image/EXB0p\" rel=\"nofollow\" target=\"_NEW\">\nhttps://pichub.site/image/EXB0p</a> <a href=\"\nhttps://pichub.site/image/EXKFy\" rel=\"nofollow\" target=\"_NEW\">\nhttps://pichub.site/image/EXKFy</a>\r\n\r\nIMDB <a href=\"\nhttps://www.imdb.com/title/tt8305690/\" rel=\"nofollow\" target=\"_NEW\">\nhttps://www.imdb.com/title/tt8305690/</a>\r\n\r\nVideo\r\nFormat                                   : AVC\r\nFormat/Info                              : Advanced Video Codec\r\nFormat profile                           : High@L4.1\r\nFormat settings                          : CABAC / 4 Ref Frames\r\nFormat settings, CABAC                   : Yes\r\nFormat settings, RefFrames               : 4 frames\r\nCodec ID                                 : V_MPEG4/ISO/AVC\r\nDuration                                 : 1 h 34 min\r\nBit rate                                 : 1 050 kb/s\r\nWidth                                    : 1 280 pixels\r\nHeight                                   : 544 pixels\r\nDisplay aspect ratio                     : 2.35:1\r\nFrame rate mode                          : Constant\r\nFrame rate                               : 23.976 (24000/1001) FPS\r\nColor space                              : YUV\r\nChroma subsampling                       : 4:2:0\r\nBit depth                                : 8 bits\r\nBits/(Pixel*Frame)                       : 0.063\r\nStream size                              : 684 MiB (89%)\r\nWriting library                          : x264 core 155 r2901 7d0ff22\r\n\r\nAudio\r\nFormat                                   : AAC\r\nFormat/Info                              : Advanced Audio Codec\r\nFormat profile                           : LC\r\nCodec ID                                 : A_AAC-2\r\nDuration                                 : 1 h 34 min\r\nBit rate                                 : 128 kb/s\r\nChannel(s)                               : 2 channels\r\nChannel positions                        : Front: L R\r\nSampling rate                            : 48.0 kHz\r\nFrame rate                               : 46.875 FPS (1024 SPF)\r\nStream size                              : 86.5 MiB (11%)\r\nLanguage                                 : English","last_updated":"2018-09-28T13:11:04.873Z","parsed":{"xt":"urn:btih:3678a10e96b8bb478c60583c9ee07ffd759bd1d6","dn":"Alien Expedition 2018 720p WEB-DL x264 [MW]","tr":["udp://exodus.desync.com:6969","udp://open.demonii.com:1337","udp://tracker.coppersurfer.tk:6969","udp://tracker.leechers-paradise.org:6969","udp://zer0day.ch:1337"],"infoHash":"3678a10e96b8bb478c60583c9ee07ffd759bd1d6","infoHashBuffer":{"type":"Buffer","data":[54,120,161,14,150,184,187,71,140,96,88,60,158,224,127,253,117,155,209,214]},"name":"Alien Expedition 2018 720p WEB-DL x264 [MW]","announce":["udp://exodus.desync.com:6969","udp://open.demonii.com:1337","udp://tracker.coppersurfer.tk:6969","udp://tracker.leechers-paradise.org:6969","udp://zer0day.ch:1337"],"urlList":[]}}